<svg width="904" height="202" viewBox="0 0 904 202" fill="none" xmlns="http://www.w3.org/2000/svg">
<rect width="202" height="202" rx="11" fill="#EB5757"/>
<rect x="37" y="37" width="129" height="129" rx="11" fill="#F2994A"/>
<rect x="84" y="52" width="34" height="7" rx="3.5" fill="#F2C94C"/>
<path d="M282.808 96.124C279.48 96.124 273.976 96.124 267.448 95.996V133.5H250.68V43.9H284.216C303.288 43.9 319.032 47.996 319.032 69.5C319.032 91.004 303.416 96.124 282.808 96.124ZM267.448 82.044H281.528C292.536 82.044 302.648 81.148 302.648 69.5C302.648 58.236 293.304 58.108 281.528 58.108H267.448V82.044ZM376.314 127.1C371.578 132.348 364.922 135.548 356.346 135.548C337.274 135.548 323.834 120.188 323.834 101.116C323.834 82.044 337.274 67.58 356.346 67.58C364.922 67.58 371.578 70.524 376.186 75.516C378.874 78.332 379.386 83.58 380.666 87.292L383.354 86.396C382.202 82.684 379.898 78.204 379.898 74.364L379.77 69.5H395.514V133.5H379.77L379.898 128.252C379.898 124.412 382.202 119.804 383.354 116.22L380.538 115.324C379.386 118.908 378.874 124.156 376.314 127.1ZM339.578 101.116C339.578 111.868 346.618 120.956 357.242 120.956C367.738 120.956 374.778 111.612 375.162 101.116C375.162 89.852 368.89 82.172 357.242 82.172C346.618 82.172 339.578 90.236 339.578 101.116ZM462.276 126.844C457.284 132.22 450.116 135.548 441.156 135.548C421.828 135.548 408.132 120.188 408.132 101.116C408.132 82.044 421.828 67.58 441.156 67.58C449.988 67.58 457.156 70.524 462.02 75.644C464.708 78.332 465.476 83.58 466.884 87.164L469.572 86.268C468.164 82.556 465.86 78.204 465.604 74.364L465.348 69.5H481.092V135.292C480.964 152.7 470.98 165.5 444.356 165.5C422.724 165.5 411.076 155.26 409.924 139.388H426.564C428.1 148.604 435.012 150.908 443.588 150.908C458.692 150.908 465.348 144.38 465.348 133.5C465.348 131.452 465.348 129.788 465.476 127.996C465.732 124.284 468.164 119.932 469.444 116.476L466.756 115.452C465.476 119.036 464.836 124.156 462.276 126.844ZM423.748 101.756C423.748 112.38 430.404 120.444 443.076 120.444C455.108 120.444 461.764 113.276 462.404 103.292V100.092C461.764 90.236 455.108 82.812 443.076 82.812C430.404 82.812 423.748 91.004 423.748 101.756ZM532.145 135.548C506.161 135.548 492.209 120.188 492.209 101.116C492.209 82.044 507.441 67.58 529.073 67.58C551.345 67.58 565.169 83.196 565.041 100.86C565.041 102.14 565.041 105.212 564.913 106.364L511.025 106.236C511.025 113.276 517.425 122.108 530.609 122.108C539.185 122.108 544.433 118.396 545.713 115.196H563.633C561.713 121.852 552.241 135.548 532.145 135.548ZM511.025 95.74H546.737C546.737 86.908 540.209 79.996 529.457 79.996C518.577 79.996 511.025 87.676 511.025 95.74ZM572.977 88.7C572.977 62.204 592.433 41.98 617.137 41.98C641.841 41.98 661.297 63.484 661.297 88.7C661.297 113.916 641.841 135.548 617.137 135.548C592.433 135.548 572.977 115.196 572.977 88.7ZM589.873 88.7C589.873 103.548 598.833 119.292 617.137 119.292C635.441 119.292 644.529 103.548 644.529 88.7C644.529 73.852 635.441 58.236 617.137 58.236C598.833 58.236 589.873 73.852 589.873 88.7ZM685.593 69.5L701.849 107.132C703.769 111.612 703.641 118.012 703.641 122.876H706.585C706.585 117.884 706.329 111.612 708.249 107.132L724.505 69.5H741.657L713.497 133.5H697.241L668.569 69.5H685.593ZM788.145 135.548C762.161 135.548 748.209 120.188 748.209 101.116C748.209 82.044 763.441 67.58 785.073 67.58C807.345 67.58 821.169 83.196 821.041 100.86C821.041 102.14 821.041 105.212 820.913 106.364L767.025 106.236C767.025 113.276 773.425 122.108 786.609 122.108C795.185 122.108 800.433 118.396 801.713 115.196H819.633C817.713 121.852 808.241 135.548 788.145 135.548ZM767.025 95.74H802.737C802.737 86.908 796.209 79.996 785.457 79.996C774.577 79.996 767.025 87.676 767.025 95.74ZM853.681 72.828C859.057 68.604 864.689 67.58 873.009 67.58C886.065 67.58 896.177 75.004 896.177 89.596V133.5H880.433V100.86C880.433 88.572 875.953 83.068 866.609 83.068C856.369 83.068 847.665 88.572 847.665 100.86V133.5H832.049V69.5H847.665V70.524C847.665 75.644 845.105 81.788 843.185 86.652L845.873 87.804C847.793 82.94 849.585 76.028 853.681 72.828Z" fill="black"/>
</svg>
